<svg xmlns="http://www.w3.org/2000/svg" viewBox="0 0 640 240" width="640" height="240" role="img" aria-hidden="true" focusable="false"><defs><linearGradient id="gsecure" x1="0" y1="0" x2="1" y2="1"><stop offset="0" stop-color="#fb7185" stop-opacity=".95"/><stop offset="1" stop-color="#a78bfa" stop-opacity=".95"/></linearGradient><radialGradient id="bsecure" cx=".5" cy=".5" r=".6"><stop offset="0" stop-color="#fb7185" stop-opacity=".34"/><stop offset="1" stop-color="#fb7185" stop-opacity="0"/></radialGradient></defs><rect width="640" height="240" rx="18" fill="#0d1322"/><rect width="640" height="240" rx="18" fill="url(#bsecure)"/><circle cx="620" cy="165" r="1.1" fill="#fff" opacity=".59"/><circle cx="443" cy="216" r="1.5" fill="#fff" opacity=".42"/><circle cx="406" cy="231" r="1.1" fill="#fff" opacity=".29"/><circle cx="109" cy="50" r="1.3" fill="#fff" opacity=".60"/><circle cx="112" cy="25" r="0.7" fill="#fff" opacity=".55"/><circle cx="15" cy="124" r="0.8" fill="#fff" opacity=".46"/><circle cx="250" cy="155" r="1.1" fill="#fff" opacity=".49"/><circle cx="289" cy="198" r="1.5" fill="#fff" opacity=".32"/><circle cx="180" cy="61" r="1.6" fill="#fff" opacity=".43"/><circle cx="163" cy="208" r="1" fill="#fff" opacity=".58"/><circle cx="158" cy="127" r="0.9" fill="#fff" opacity=".37"/><circle cx="149" cy="202" r="1.5" fill="#fff" opacity=".52"/><circle cx="184" cy="97" r="1.1" fill="#fff" opacity=".39"/><circle cx="247" cy="68" r="1.7" fill="#fff" opacity=".54"/><circle cx="386" cy="19" r="0.9" fill="#fff" opacity=".57"/><circle cx="457" cy="30" r="1" fill="#fff" opacity=".48"/><circle cx="508" cy="181" r="1.4" fill="#fff" opacity=".51"/><circle cx="523" cy="184" r="1.3" fill="#fff" opacity=".50"/><circle cx="422" cy="199" r="1.6" fill="#fff" opacity=".53"/><circle cx="317" cy="146" r="1.7" fill="#fff" opacity=".44"/><circle cx="512" cy="57" r="1.4" fill="#fff" opacity=".31"/><circle cx="607" cy="92" r="0.8" fill="#fff" opacity=".46"/><circle cx="266" cy="123" r="1.4" fill="#fff" opacity=".41"/><circle cx="369" cy="230" r="1" fill="#fff" opacity=".48"/><circle cx="360" cy="36" r="3" fill="#fff" opacity=".28"/><circle cx="392" cy="36" r="3" fill="#fff" opacity=".28"/><circle cx="424" cy="36" r="3" fill="#fff" opacity=".28"/><circle cx="456" cy="36" r="3" fill="#fff" opacity=".28"/><circle cx="488" cy="36" r="3" fill="#fff" opacity=".28"/><circle cx="520" cy="36" r="3" fill="#fff" opacity=".28"/><circle cx="552" cy="36" r="3" fill="#fff" opacity=".28"/><circle cx="584" cy="36" r="3" fill="#fff" opacity=".28"/><circle cx="616" cy="36" r="3" fill="#fff" opacity=".28"/><circle cx="372" cy="64" r="3" fill="#fff" opacity=".28"/><circle cx="404" cy="64" r="3" fill="#fff" opacity=".28"/><circle cx="436" cy="64" r="3" fill="#fff" opacity=".28"/><circle cx="468" cy="64" r="3" fill="#fff" opacity=".28"/><circle cx="500" cy="64" r="3" fill="#fff" opacity=".28"/><circle cx="532" cy="64" r="3" fill="#fff" opacity=".28"/><circle cx="564" cy="64" r="3" fill="#fff" opacity=".28"/><circle cx="596" cy="64" r="3" fill="#fff" opacity=".28"/><circle cx="628" cy="64" r="3" fill="#fff" opacity=".28"/><circle cx="368" cy="92" r="3" fill="#fff" opacity=".28"/><circle cx="400" cy="92" r="3" fill="#fff" opacity=".28"/><circle cx="432" cy="92" r="3" fill="#fff" opacity=".28"/><circle cx="464" cy="92" r="3" fill="#fff" opacity=".28"/><circle cx="496" cy="92" r="3" fill="#fff" opacity=".28"/><circle cx="528" cy="92" r="3" fill="#fff" opacity=".28"/><circle cx="560" cy="92" r="3" fill="#fff" opacity=".28"/><circle cx="592" cy="92" r="3" fill="#fff" opacity=".28"/><circle cx="624" cy="92" r="3" fill="#fff" opacity=".28"/><circle cx="380" cy="120" r="3" fill="#fff" opacity=".28"/><circle cx="412" cy="120" r="3" fill="#fff" opacity=".28"/><circle cx="444" cy="120" r="3" fill="#fff" opacity=".28"/><circle cx="476" cy="120" r="3" fill="#fff" opacity=".28"/><circle cx="508" cy="120" r="3" fill="#fff" opacity=".28"/><circle cx="540" cy="120" r="3" fill="#fff" opacity=".28"/><circle cx="572" cy="120" r="3" fill="#fff" opacity=".28"/><circle cx="604" cy="120" r="3" fill="#fff" opacity=".28"/><circle cx="636" cy="120" r="3" fill="#fff" opacity=".28"/><circle cx="376" cy="148" r="3" fill="#fff" opacity=".28"/><circle cx="408" cy="148" r="3" fill="#fff" opacity=".28"/><circle cx="440" cy="148" r="3" fill="#fff" opacity=".28"/><circle cx="472" cy="148" r="3" fill="#fff" opacity=".28"/><circle cx="504" cy="148" r="3" fill="#fff" opacity=".28"/><circle cx="536" cy="148" r="6" fill="#fbbf24" opacity="1"/><circle cx="536" cy="148" r="16" fill="none" stroke="#fbbf24" stroke-width="2" stroke-dasharray="4 4"/><circle cx="568" cy="148" r="3" fill="#fff" opacity=".28"/><circle cx="600" cy="148" r="3" fill="#fff" opacity=".28"/><circle cx="632" cy="148" r="3" fill="#fff" opacity=".28"/><circle cx="388" cy="176" r="3" fill="#fff" opacity=".28"/><circle cx="420" cy="176" r="3" fill="#fff" opacity=".28"/><circle cx="452" cy="176" r="3" fill="#fff" opacity=".28"/><circle cx="484" cy="176" r="3" fill="#fff" opacity=".28"/><circle cx="516" cy="176" r="3" fill="#fff" opacity=".28"/><circle cx="548" cy="176" r="3" fill="#fff" opacity=".28"/><circle cx="580" cy="176" r="3" fill="#fff" opacity=".28"/><circle cx="612" cy="176" r="3" fill="#fff" opacity=".28"/><circle cx="644" cy="176" r="3" fill="#fff" opacity=".28"/><circle cx="384" cy="204" r="3" fill="#fff" opacity=".28"/><circle cx="416" cy="204" r="3" fill="#fff" opacity=".28"/><circle cx="448" cy="204" r="3" fill="#fff" opacity=".28"/><circle cx="480" cy="204" r="3" fill="#fff" opacity=".28"/><circle cx="512" cy="204" r="3" fill="#fff" opacity=".28"/><circle cx="544" cy="204" r="3" fill="#fff" opacity=".28"/><circle cx="576" cy="204" r="3" fill="#fff" opacity=".28"/><circle cx="608" cy="204" r="3" fill="#fff" opacity=".28"/><circle cx="640" cy="204" r="3" fill="#fff" opacity=".28"/><path d="M150 124 v-34 a40 40 0 0 1 80 0 v34" fill="none" stroke="url(#gsecure)" stroke-width="10" stroke-linecap="round" transform="translate(-40 0)"/><rect x="150" y="124" width="120" height="86" rx="16" fill="#131a2b" stroke="url(#gsecure)" stroke-width="4" transform="translate(-60 0)"/><circle cx="150" cy="158" r="11" fill="#fbbf24"/><rect x="147" y="160" width="6" height="26" rx="3" fill="#fbbf24"/></svg>
